<?xml version="1.0" encoding="iso-8859-1"?>
<!-- Generator: Adobe Illustrator 19.1.0, SVG Export Plug-In . SVG Version: 6.00 Build 0)  -->
<svg xmlns="http://www.w3.org/2000/svg" xmlns:xlink="http://www.w3.org/1999/xlink" version="1.1" id="Capa_1" x="0px" y="0px" viewBox="0 0 64 64" style="enable-background:new 0 0 64 64;" xml:space="preserve" width="512px" height="512px">
<g>
	<g>
	</g>
	<g>
	</g>
	<g>
	</g>
	<g>
	</g>
	<g>
	</g>
	<g>
	</g>
	<g>
	</g>
	<g>
	</g>
	<g>
	</g>
	<g>
	</g>
	<g>
	</g>
	<g>
	</g>
	<g>
	</g>
	<g>
	</g>
	<g>
	</g>
</g>
<g>
	<path d="M64,25h-2V14h-7V8H6c-3.309,0-6,2.691-6,6v42h62V45h2V25z M6,10h47v4H2C2,11.794,3.794,10,6,10z M60,54H2V16h58v9H43.125   c-5.514,0-10,4.486-10,10s4.486,10,10,10H60V54z M62,43H43.125c-4.411,0-8-3.589-8-8s3.589-8,8-8H62V43z" fill="#FFFFFF"/>
	<path d="M40,35c0,2.206,1.794,4,4,4s4-1.794,4-4s-1.794-4-4-4S40,32.794,40,35z M44,33c1.103,0,2,0.897,2,2s-0.897,2-2,2   s-2-0.897-2-2S42.897,33,44,33z" fill="#FFFFFF"/>
</g>
<g>
</g>
<g>
</g>
<g>
</g>
<g>
</g>
<g>
</g>
<g>
</g>
<g>
</g>
<g>
</g>
<g>
</g>
<g>
</g>
<g>
</g>
<g>
</g>
<g>
</g>
<g>
</g>
<g>
</g>
</svg>
